General
Unique ID                                : 18351683647382782505461980285630226138 (0xDCE67DC63F5789E81B029C5D93D1EDA)
Complete name                            : ReoNa - VITA -The Days- [WEB-DL 1080p AAC 2.0 x264-SEKAI].mkv
Format                                   : Matroska
Format version                           : Version 4
File size                                : 481 MiB
Duration                                 : 9 min 36 s
Overall bit rate                         : 7 002 kb/s
Frame rate                               : 29.970 FPS
Title                                    : ReoNa - VITA -The Days- [WEB-DL 1080p AAC 2.0 x264-SEKAI]
Encoded date                             : 2026-04-26 16:25:25 UTC
Writing application                      : mkvmerge 98.0 ('Chonks') 64-bit
Writing library                          : libebml v1.4.5 + libmatroska v1.7.1
Website                                  : https://sekai-archivist.blogspot.com/

Video
ID                                       : 1
Format                                   : AVC
Format/Info                              : Advanced Video Codec
Format profile                           : High@L4
Format settings                          : CABAC / 4 Ref Frames
Format settings, CABAC                   : Yes
Format settings, Reference frames        : 4 frames
Format settings, Slice count             : 8 slices per frame
Codec ID                                 : V_MPEG4/ISO/AVC
Duration                                 : 9 min 36 s
Bit rate                                 : 6 730 kb/s
Width                                    : 1 920 pixels
Height                                   : 1 080 pixels
Display aspect ratio                     : 16:9
Frame rate mode                          : Constant
Frame rate                               : 29.970 (30000/1001) FPS
Color space                              : YUV
Chroma subsampling                       : 4:2:0 (Type 2)
Bit depth                                : 8 bits
Scan type                                : Progressive
Bits/(Pixel*Frame)                       : 0.108
Stream size                              : 463 MiB (96%)
Language                                 : Japanese
Default                                  : Yes
Forced                                   : No
Color range                              : Limited
Color primaries                          : BT.709
Transfer characteristics                 : BT.709
Matrix coefficients                      : BT.709

Audio
ID                                       : 2
Format                                   : AAC LC
Format/Info                              : Advanced Audio Codec Low Complexity
Codec ID                                 : A_AAC-2
Duration                                 : 9 min 36 s
Bit rate                                 : 265 kb/s
Channel(s)                               : 2 channels
Channel layout                           : L R
Sampling rate                            : 48.0 kHz
Frame rate                               : 46.875 FPS (1024 SPF)
Compression mode                         : Lossy
Stream size                              : 18.5 MiB (4%)
Language                                 : Japanese
Default                                  : Yes
Forced                                   : No


